<?xml version="1.0" encoding="UTF-8"?>
<svg version="1.1" xmlns="http://www.w3.org/2000/svg" width="640" height="640">
<path d="M0 0 C13.90207577 10.8436191 24.08922747 26.18580672 26.71484375 43.90234375 C28.18494167 59.8720376 25.63845374 71.96412336 20 87 C46.73 113.73 73.46 140.46 101 168 C107.435 165.525 107.435 165.525 114 163 C120.38344611 161.24362372 126.20768671 160.64397148 132.8125 160.6875 C133.6876123 160.69168945 134.56272461 160.69587891 135.46435547 160.70019531 C142.32193088 160.8193693 148.50053514 161.72910264 155 164 C155.8559375 164.2784375 156.711875 164.556875 157.59375 164.84375 C164.16291693 167.19567396 169.52725715 170.71401418 175 175 C175.83660156 175.64710938 176.67320312 176.29421875 177.53515625 176.9609375 C189.78210385 187.14464354 198.07725086 202.11809214 200 218 C201.13626619 238.73234889 197.9457046 256.59543578 184.07421875 272.765625 C171.61311452 286.18888606 155.71284759 294.19040415 137.30859375 295.203125 C124.0355884 295.36384757 113.47104614 292.98841845 101 288 C74.27 314.73 47.54 341.46 20 369 C21.98 374.94 23.96 380.88 26 387 C28.81203166 406.68422163 26.24710666 424.33461403 15 441 C4.8491712 454.31881622 -9.70760841 464.21652168 -26.26171875 467.52734375 C-47.29552916 470.18679104 -65.77218008 466.78943011 -82.8125 453.8671875 C-96.62905045 442.11469489 -105.49650012 425.82076455 -107.21582031 407.72900391 C-108.0483349 393.60320782 -105.27370553 382.18426381 -100 369 C-126.73 342.27 -153.46 315.54 -181 288 C-186.61 289.98 -192.22 291.96 -198 294 C-216.32130291 297.05355048 -233.95408177 294.92689866 -250 285 C-264.69492227 274.4813239 -275.68472129 260.36690776 -279.60009766 242.44335938 C-282.79350652 222.93198217 -279.55529176 204.18640091 -268 188 C-256.60996986 173.58029854 -241.35551453 163.77142885 -223 161 C-207.75425895 159.58283543 -195.21570717 162.31371713 -181 168 C-140.905 127.905 -140.905 127.905 -100 87 C-101.98 81.06 -103.96 75.12 -106 69 C-109.55263987 51.23680063 -106.44179717 33.50373623 -97 18 C-87.22585076 3.80371982 -73.01917489 -7.13637275 -56.15625 -11.37109375 C-36.18514062 -14.90220288 -16.60442118 -11.91186737 0 0 Z M-61 38.4375 C-65.85058413 45.38810173 -66.87761237 51.62279104 -66 60 C-64.19830556 68.21040622 -59.83178585 73.27553118 -53 78 C-47.36827451 81.24781062 -41.3952736 81.8752474 -35 81 C-27.52988598 78.9187742 -20.66616666 74.40105257 -16.61328125 67.7109375 C-13.33741135 60.46954087 -12.49597635 53.42973389 -15.0703125 45.84765625 C-18.57631431 38.09805115 -22.70783082 33.54841033 -30.328125 29.87890625 C-41.88079992 26.07868424 -53.37777413 29.1718784 -61 38.4375 Z M-70 115 C-97.39 142.39 -124.78 169.78 -153 198 C-152.01 200.97 -151.02 203.94 -150 207 C-144.99108441 225.20112125 -147.09743275 240.29229824 -153 258 C-125.61 285.39 -98.22 312.78 -70 341 C-67.03 340.01 -64.06 339.02 -61 338 C-45.3751918 333.06585004 -29.41981377 333.9358091 -14.41015625 340.390625 C-12.05123385 341.23560126 -12.05123385 341.23560126 -10.07162094 340.24530983 C-7.86616085 338.91954551 -6.25955619 337.50570388 -4.44390869 335.68441772 C-3.75686356 335.00012192 -3.06981842 334.31582611 -2.36195374 333.61079407 C-1.61892502 332.8605748 -0.8758963 332.11035553 -0.11035156 331.33740234 C0.68027176 330.54707108 1.47089508 329.75673981 2.28547668 328.94245911 C4.89821109 326.32833109 7.50378954 323.70718956 10.109375 321.0859375 C11.91926192 319.27232057 13.72959083 317.45914463 15.54034424 315.64639282 C19.81862071 311.36125966 24.09241301 307.07170349 28.36406636 302.77997172 C33.22831018 297.89336221 38.09824386 293.0124401 42.96866179 288.13198543 C52.98544799 278.09430211 62.99507421 268.04950407 73 258 C72.65066406 256.85402344 72.30132812 255.70804688 71.94140625 254.52734375 C71.48150708 252.9974751 71.02188646 251.46752269 70.5625 249.9375 C70.21735352 248.80924805 70.21735352 248.80924805 69.86523438 247.65820312 C64.63505468 230.14847111 67.37075033 214.887749 73 198 C45.61 170.61 18.22 143.22 -10 115 C-15.28 116.65 -20.56 118.3 -26 120 C-42.23817355 122.02977169 -54.26055966 120.24648011 -70 115 Z M-232 205 C-232.886875 205.5775 -233.77375 206.155 -234.6875 206.75 C-240.14827863 212.06319002 -243.09050093 217.91017294 -243.29199219 225.54760742 C-243.35880625 232.51933625 -243.25680014 238.20602202 -239 244 C-238.4225 244.886875 -237.845 245.77375 -237.25 246.6875 C-231.93680998 252.14827863 -226.08982706 255.09050093 -218.45239258 255.29199219 C-211.48066375 255.35880625 -205.79397798 255.25680014 -200 251 C-199.113125 250.4225 -198.22625 249.845 -197.3125 249.25 C-191.85172137 243.93680998 -188.90949907 238.08982706 -188.70800781 230.45239258 C-188.64119375 223.48066375 -188.74319986 217.79397798 -193 212 C-193.5775 211.113125 -194.155 210.22625 -194.75 209.3125 C-200.06319002 203.85172137 -205.91017294 200.90949907 -213.54760742 200.70800781 C-220.51933625 200.64119375 -226.20602202 200.74319986 -232 205 Z " fill="#000000" transform="translate(360,92)"/>
</svg>
